<svg id="visual" viewBox="0 0 1920 3840" width="1920" height="3840" xmlns="http://www.w3.org/2000/svg" xmlns:xlink="http://www.w3.org/1999/xlink" version="1.1"><rect x="0" y="0" width="1920" height="3840" fill="#ffffff"></rect><defs><linearGradient id="grad1_0" x1="0%" y1="100%" x2="100%" y2="0%"><stop offset="30%" stop-color="#ffffff" stop-opacity="1"></stop><stop offset="70%" stop-color="#ffffff" stop-opacity="1"></stop></linearGradient></defs><defs><linearGradient id="grad2_0" x1="0%" y1="100%" x2="100%" y2="0%"><stop offset="30%" stop-color="#ffffff" stop-opacity="1"></stop><stop offset="70%" stop-color="#ffffff" stop-opacity="1"></stop></linearGradient></defs><g transform="translate(1920, 3840)"><path d="M-1632 0C-1611.4 -214.7 -1590.7 -429.4 -1507.8 -624.5C-1424.8 -819.7 -1279.5 -995.3 -1111.6 -1111.6C-943.6 -1227.9 -753.1 -1284.9 -564.1 -1361.8C-375 -1438.7 -187.5 -1535.3 0 -1632L0 0Z" fill="#90caf9"></path></g><g transform="translate(0, 0)"><path d="M1632 0C1504.9 177.7 1377.9 355.4 1296.2 536.9C1214.5 718.4 1178.3 903.6 1078.3 1078.3C978.4 1253.1 814.9 1417.2 624.5 1507.8C434.2 1598.3 217.1 1615.1 0 1632L0 0Z" fill="#90caf9"></path></g></svg>