<svg id="visual" viewBox="0 0 1920 1080" width="1920" height="1080" xmlns="http://www.w3.org/2000/svg" xmlns:xlink="http://www.w3.org/1999/xlink" version="1.1"><rect x="0" y="0" width="1920" height="1080" fill="#90caf9"></rect><path d="M0 709L45.7 713.2C91.3 717.3 182.7 725.7 274.2 702.2C365.7 678.7 457.3 623.3 548.8 609.3C640.3 595.3 731.7 622.7 823 661C914.3 699.3 1005.7 748.7 1097 756.8C1188.3 765 1279.7 732 1371.2 719.3C1462.7 706.7 1554.3 714.3 1645.8 727.7C1737.3 741 1828.7 760 1874.3 769.5L1920 779L1920 0L1874.3 0C1828.7 0 1737.3 0 1645.8 0C1554.3 0 1462.7 0 1371.2 0C1279.7 0 1188.3 0 1097 0C1005.7 0 914.3 0 823 0C731.7 0 640.3 0 548.8 0C457.3 0 365.7 0 274.2 0C182.7 0 91.3 0 45.7 0L0 0Z" fill="#e3f2fd"></path><path d="M0 659L45.7 656.8C91.3 654.7 182.7 650.3 274.2 630.7C365.7 611 457.3 576 548.8 538.2C640.3 500.3 731.7 459.7 823 442.3C914.3 425 1005.7 431 1097 434.2C1188.3 437.3 1279.7 437.7 1371.2 437.8C1462.7 438 1554.3 438 1645.8 443.3C1737.3 448.7 1828.7 459.3 1874.3 464.7L1920 470L1920 0L1874.3 0C1828.7 0 1737.3 0 1645.8 0C1554.3 0 1462.7 0 1371.2 0C1279.7 0 1188.3 0 1097 0C1005.7 0 914.3 0 823 0C731.7 0 640.3 0 548.8 0C457.3 0 365.7 0 274.2 0C182.7 0 91.3 0 45.7 0L0 0Z" fill="#c8e5fc"></path><path d="M0 473L45.7 460.7C91.3 448.3 182.7 423.7 274.2 397.5C365.7 371.3 457.3 343.7 548.8 354.2C640.3 364.7 731.7 413.3 823 437.7C914.3 462 1005.7 462 1097 456.5C1188.3 451 1279.7 440 1371.2 434.5C1462.7 429 1554.3 429 1645.8 435.2C1737.3 441.3 1828.7 453.7 1874.3 459.8L1920 466L1920 0L1874.3 0C1828.7 0 1737.3 0 1645.8 0C1554.3 0 1462.7 0 1371.2 0C1279.7 0 1188.3 0 1097 0C1005.7 0 914.3 0 823 0C731.7 0 640.3 0 548.8 0C457.3 0 365.7 0 274.2 0C182.7 0 91.3 0 45.7 0L0 0Z" fill="#acd7fa"></path><path d="M0 263L45.7 263.5C91.3 264 182.7 265 274.2 260.8C365.7 256.7 457.3 247.3 548.8 232.8C640.3 218.3 731.7 198.7 823 203.5C914.3 208.3 1005.7 237.7 1097 234.8C1188.3 232 1279.7 197 1371.2 184.3C1462.7 171.7 1554.3 181.3 1645.8 181.5C1737.3 181.7 1828.7 172.3 1874.3 167.7L1920 163L1920 0L1874.3 0C1828.7 0 1737.3 0 1645.8 0C1554.3 0 1462.7 0 1371.2 0C1279.7 0 1188.3 0 1097 0C1005.7 0 914.3 0 823 0C731.7 0 640.3 0 548.8 0C457.3 0 365.7 0 274.2 0C182.7 0 91.3 0 45.7 0L0 0Z" fill="#90caf9"></path></svg>