<svg id="visual" viewBox="0 0 1920 1080" width="1920" height="1080" xmlns="http://www.w3.org/2000/svg" xmlns:xlink="http://www.w3.org/1999/xlink" version="1.1"><rect x="0" y="0" width="1920" height="1080" fill="#90caf9"></rect><path d="M0 713L45.7 723.2C91.3 733.3 182.7 753.7 274.2 731.7C365.7 709.7 457.3 645.3 548.8 637C640.3 628.7 731.7 676.3 823 695.2C914.3 714 1005.7 704 1097 680.5C1188.3 657 1279.7 620 1371.2 627.8C1462.7 635.7 1554.3 688.3 1645.8 696.7C1737.3 705 1828.7 669 1874.3 651L1920 633L1920 0L1874.3 0C1828.7 0 1737.3 0 1645.8 0C1554.3 0 1462.7 0 1371.2 0C1279.7 0 1188.3 0 1097 0C1005.7 0 914.3 0 823 0C731.7 0 640.3 0 548.8 0C457.3 0 365.7 0 274.2 0C182.7 0 91.3 0 45.7 0L0 0Z" fill="#e3f2fd"></path><path d="M0 439L45.7 460.3C91.3 481.7 182.7 524.3 274.2 542C365.7 559.7 457.3 552.3 548.8 569.2C640.3 586 731.7 627 823 624.2C914.3 621.3 1005.7 574.7 1097 535.7C1188.3 496.7 1279.7 465.3 1371.2 457.5C1462.7 449.7 1554.3 465.3 1645.8 483.2C1737.3 501 1828.7 521 1874.3 531L1920 541L1920 0L1874.3 0C1828.7 0 1737.3 0 1645.8 0C1554.3 0 1462.7 0 1371.2 0C1279.7 0 1188.3 0 1097 0C1005.7 0 914.3 0 823 0C731.7 0 640.3 0 548.8 0C457.3 0 365.7 0 274.2 0C182.7 0 91.3 0 45.7 0L0 0Z" fill="#c8e5fc"></path><path d="M0 397L45.7 388.5C91.3 380 182.7 363 274.2 360.7C365.7 358.3 457.3 370.7 548.8 364.5C640.3 358.3 731.7 333.7 823 348.5C914.3 363.3 1005.7 417.7 1097 438.3C1188.3 459 1279.7 446 1371.2 447.7C1462.7 449.3 1554.3 465.7 1645.8 457C1737.3 448.3 1828.7 414.7 1874.3 397.8L1920 381L1920 0L1874.3 0C1828.7 0 1737.3 0 1645.8 0C1554.3 0 1462.7 0 1371.2 0C1279.7 0 1188.3 0 1097 0C1005.7 0 914.3 0 823 0C731.7 0 640.3 0 548.8 0C457.3 0 365.7 0 274.2 0C182.7 0 91.3 0 45.7 0L0 0Z" fill="#acd7fa"></path><path d="M0 260L45.7 257.2C91.3 254.3 182.7 248.7 274.2 241.2C365.7 233.7 457.3 224.3 548.8 209.8C640.3 195.3 731.7 175.7 823 185.8C914.3 196 1005.7 236 1097 254.2C1188.3 272.3 1279.7 268.7 1371.2 261.2C1462.7 253.7 1554.3 242.3 1645.8 222.2C1737.3 202 1828.7 173 1874.3 158.5L1920 144L1920 0L1874.3 0C1828.7 0 1737.3 0 1645.8 0C1554.3 0 1462.7 0 1371.2 0C1279.7 0 1188.3 0 1097 0C1005.7 0 914.3 0 823 0C731.7 0 640.3 0 548.8 0C457.3 0 365.7 0 274.2 0C182.7 0 91.3 0 45.7 0L0 0Z" fill="#90caf9"></path></svg>