<svg id="visual" viewBox="0 0 1920 1080" width="1920" height="1080" xmlns="http://www.w3.org/2000/svg" xmlns:xlink="http://www.w3.org/1999/xlink" version="1.1"><rect x="0" y="0" width="1920" height="1080" fill="#90caf9"></rect><path d="M0 729L45.7 745.3C91.3 761.7 182.7 794.3 274.2 790.2C365.7 786 457.3 745 548.8 722.7C640.3 700.3 731.7 696.7 823 710.8C914.3 725 1005.7 757 1097 757.8C1188.3 758.7 1279.7 728.3 1371.2 718.2C1462.7 708 1554.3 718 1645.8 735C1737.3 752 1828.7 776 1874.3 788L1920 800L1920 0L1874.3 0C1828.7 0 1737.3 0 1645.8 0C1554.3 0 1462.7 0 1371.2 0C1279.7 0 1188.3 0 1097 0C1005.7 0 914.3 0 823 0C731.7 0 640.3 0 548.8 0C457.3 0 365.7 0 274.2 0C182.7 0 91.3 0 45.7 0L0 0Z" fill="#e3f2fd"></path><path d="M0 606L45.7 613.5C91.3 621 182.7 636 274.2 623.2C365.7 610.3 457.3 569.7 548.8 562.2C640.3 554.7 731.7 580.3 823 570.7C914.3 561 1005.7 516 1097 516.2C1188.3 516.3 1279.7 561.7 1371.2 593.8C1462.7 626 1554.3 645 1645.8 627.2C1737.3 609.3 1828.7 554.7 1874.3 527.3L1920 500L1920 0L1874.3 0C1828.7 0 1737.3 0 1645.8 0C1554.3 0 1462.7 0 1371.2 0C1279.7 0 1188.3 0 1097 0C1005.7 0 914.3 0 823 0C731.7 0 640.3 0 548.8 0C457.3 0 365.7 0 274.2 0C182.7 0 91.3 0 45.7 0L0 0Z" fill="#c8e5fc"></path><path d="M0 272L45.7 290.2C91.3 308.3 182.7 344.7 274.2 377.7C365.7 410.7 457.3 440.3 548.8 438.7C640.3 437 731.7 404 823 385.8C914.3 367.7 1005.7 364.3 1097 374.3C1188.3 384.3 1279.7 407.7 1371.2 393.5C1462.7 379.3 1554.3 327.7 1645.8 322.3C1737.3 317 1828.7 358 1874.3 378.5L1920 399L1920 0L1874.3 0C1828.7 0 1737.3 0 1645.8 0C1554.3 0 1462.7 0 1371.2 0C1279.7 0 1188.3 0 1097 0C1005.7 0 914.3 0 823 0C731.7 0 640.3 0 548.8 0C457.3 0 365.7 0 274.2 0C182.7 0 91.3 0 45.7 0L0 0Z" fill="#acd7fa"></path><path d="M0 161L45.7 158.3C91.3 155.7 182.7 150.3 274.2 146C365.7 141.7 457.3 138.3 548.8 137C640.3 135.7 731.7 136.3 823 140.8C914.3 145.3 1005.7 153.7 1097 164.7C1188.3 175.7 1279.7 189.3 1371.2 190.7C1462.7 192 1554.3 181 1645.8 180.8C1737.3 180.7 1828.7 191.3 1874.3 196.7L1920 202L1920 0L1874.3 0C1828.7 0 1737.3 0 1645.8 0C1554.3 0 1462.7 0 1371.2 0C1279.7 0 1188.3 0 1097 0C1005.7 0 914.3 0 823 0C731.7 0 640.3 0 548.8 0C457.3 0 365.7 0 274.2 0C182.7 0 91.3 0 45.7 0L0 0Z" fill="#90caf9"></path></svg>